# AST/ASF file generated using VICON BodyLanguage
# -----------------------------------------------
:version 1.10
:name VICON
:units
  mass 1.0
  length 0.45
  angle deg
:documentation
   .ast/.asf automatically generated from VICON data using
   VICON BodyBuilder and BodyLanguage model FoxedUp or BRILLIANT.MOD
:root
   order TX TY TZ RX RY RZ
   axis XYZ
   position 0 0 0  
   orientation 0 0 0 
:bonedata
  begin
     id 1 
     name lhipjoint
     direction 0.692814 -0.645514 0.321437 
     length 2.38754 
     axis 0 0 0  XYZ
  end
  begin
     id 2 
     name lfemur
     direction 0.34202 -0.939693 0  
     length 6.41921  
     axis 0 0 20  XYZ
    dof rx ry rz
    limits (-160.0 20.0)
           (-70.0 70.0)
           (-60.0 70.0)
  end
  begin
     id 3 
     name ltibia
     direction 0.34202 -0.939693 0   
     length 6.98247   
     axis 0 0 20   XYZ
    dof rx
    limits (-10.0 170.0)
  end
  begin
     id 4 
     name lfoot
     direction 0.0947186 -0.260237 0.960888   
     length 1.83034   
     axis -90 7.62852e-016 20   XYZ
    dof rx rz
    limits (-45.0 90.0)
           (-70.0 20.0)
  end
  begin
     id 5 
     name ltoes
     direction 1.53538e-011 -4.21952e-011 1   
     length 0.920499   
     axis -90 7.62852e-016 20   XYZ
    dof rx
    limits (-90.0 20.0)
  end
  begin
     id 6 
     name rhipjoint
     direction -0.631686 -0.693949 0.345555   
     length 2.2209  
     axis 0 0 0  XYZ 
  end
  begin
     id 7 
     name rfemur
     direction -0.34202 -0.939693 0   
     length 6.49542   
     axis 0 0 -20   XYZ
    dof rx ry rz
    limits (-160.0 20.0)
           (-70.0 70.0)
           (-70.0 60.0)
  end
  begin
     id 8 
     name rtibia
     direction -0.34202 -0.939693 0   
     length 7.21712   
     axis 0 0 -20   XYZ
    dof rx
    limits (-10.0 170.0)
 end
 begin
     id 9 
     name rfoot
     direction -0.0825378 -0.226771 0.970444   
     length 1.89724  
     axis -90 -7.62852e-016 -20   XYZ
    dof rx rz
    limits (-45.0 90.0)
           (-20.0 70.0)
  end
  begin
     id 10 
     name rtoes
     direction -1.53515e-011 -4.22016e-011 1   
     length 0.955868   
     axis -90 -7.62852e-016 -20   XYZ
    dof rx
    limits (-90.0 20.0)
  end
  begin
     id 11 
     name lowerback
     direction -0.0104711 0.984802 -0.173368   
     length 1.84931   
     axis 0 0 0   XYZ
    dof rx ry rz
    limits (-20.0 45.0)
           (-30.0 30.0)
           (-30.0 30.0)
  end
  begin
     id 12 
     name upperback
     direction -0.00286433 0.999996 -0.000382853   
     length 1.85768   
     axis 0 0 0   XYZ
    dof rx ry rz
    limits (-20.0 45.0)
           (-30.0 30.0)
           (-30.0 30.0)
  end
  begin
     id 13 
     name thorax
     direction 0.00167534 0.996793 0.0800069   
     length 1.92   
     axis 0 0 0   XYZ
    dof rx ry rz
    limits (-20.0 45.0)
           (-30.0 30.0)
           (-30.0 30.0)
  end
  begin
     id 14 
     name lowerneck
     direction -0.0672491 0.995415 0.068018   
     length 1.58923   
     axis 0 0 0   XYZ
    dof rx ry rz
    limits (-20.0 45.0)
           (-30.0 30.0)
           (-30.0 30.0)
  end
  begin
     id 15 
     name upperneck
     direction 0.0958019 0.982476 -0.159884   
     length 1.60189   
     axis 0 0 0   XYZ
    dof rx ry rz
    limits (-20.0 45.0)
           (-30.0 30.0)
           (-30.0 30.0)
  end
  begin
     id 16
     name head
     direction 0.032989 0.997338 -0.0650226  
     length 1.61681  
     axis 0 0 0   XYZ
    dof rx ry rz
    limits (-20.0 45.0)
           (-30.0 30.0)
           (-30.0 30.0)
  end
  begin
     id 17 
     name lclavicle
     direction 0.954279 0.298875 -0.00496069  
     length 2.99449  
     axis 0 0 0   XYZ
    dof ry rz
    limits (-20.0 10.0)
           (0.0 20.0)
  end
  begin
     id 18 
     name lhumerus
     direction 1 -4.48985e-011 -4.2057e-027   
     length 4.79185   
     axis 180 -30 -90   XYZ
    dof rx ry rz
    limits (-60.0 90.0)
           (-90.0 90.0)
           (-90.0 90.0)
  end
  begin
     id 19
     name lradius
     direction 1 -4.48945e-011 1.15441e-028   
     length 2.65553   
     axis 180 -30 -90   XYZ
    dof rx
    limits (-10.0 170.0)
  end
  begin
     id 20
     name lwrist
     direction 1 -4.4899e-011 4.8894e-028   
     length 1.32777   
     axis -2.56392e-016 90 90   XYZ
    dof ry
    limits (-180.0 0.0)
 end
  begin
     id 21 
     name lhand
     direction 1 -4.48908e-011 9.7788e-028   
     length 0.743904   
     axis -6.23971e-016 90 90   XYZ
    dof rx rz
    limits (-90.0 90.0)
           (-45.0 45.0)
  end
  begin
     id 22 
     name lfingers
     direction 1 -4.49068e-011 1.95576e-027   
     length 0.599754   
     axis -1.24794e-015 90 90   XYZ
    dof rx
    limits (0.0 90.0)
  end
  begin
     id 23
     name lthumb
     direction 0.707107 -6.34883e-011 0.707107   
     length 0.861131   
     axis -90 45 2.85299e-015   XYZ
    dof rx rz
    limits (-45.0 45.0)
           (-45.0 45.0)
  end
  begin
     id 24 
     name rclavicle
     direction -0.957921 0.286916 0.00811568   
     length 3.06817  
     axis 0 0 0   XYZ 
    dof ry rz
    limits (-10.0 20.0)
           (-20.0 0.0)
  end
  begin
     id 25 
     name rhumerus
     direction -1 -4.48971e-011 -3.07942e-027  
     length 4.77254   
     axis 180 30 90   XYZ
    dof rx ry rz
    limits (-90.0 60.0)
           (-90.0 90.0)
           (-90.0 90.0)
  end
  begin
     id 26 
     name rradius
     direction -1 -4.48957e-011 -9.6815e-028   
     length 2.75995   
     axis 180 30 90   XYZ
    dof rx
    limits (-10.0 170.0)
  end
  begin
     id 27 
     name rwrist
     direction -1 -4.48979e-011 4.8894e-028   
     length 1.37997   
     axis -2.56392e-016 -90 -90   XYZ
    dof ry
    limits (-180.0 0.0)
  end
  begin
     id 28
     name rhand
     direction -1 -4.48906e-011 9.7788e-028   
     length 0.701619   
     axis -6.23971e-016 -90 -90   XYZ
    dof rx rz
    limits (-90.0 90.0)
           (-45.0 45.0)
  end
  begin
     id 29
     name rfingers
     direction -1 -4.49018e-011 1.95576e-027   
     length 0.565663   
     axis -1.24794e-015 -90 -90   XYZ
    dof rx
    limits (0.0 90.0)
  end
  begin
     id 30
     name rthumb
     direction -0.707107 -6.34881e-011 0.707107   
     length 0.812183   
     axis -90 -45 -2.85299e-015   XYZ
    dof rx rz
    limits (-45.0 45.0)
           (-45.0 45.0)
  end
:hierarchy
  begin
    root lhipjoint rhipjoint lowerback
    lhipjoint lfemur
    lfemur ltibia
    ltibia lfoot
    lfoot ltoes
    rhipjoint rfemur
    rfemur rtibia
    rtibia rfoot
    rfoot rtoes
    lowerback upperback
    upperback thorax
    thorax lowerneck lclavicle rclavicle
    lowerneck upperneck
    upperneck head
    lclavicle lhumerus
    lhumerus lradius
    lradius lwrist
    lwrist lhand lthumb
    lhand lfingers
    rclavicle rhumerus
    rhumerus rradius
    rradius rwrist
    rwrist rhand rthumb
    rhand rfingers
  end

#!OML:ASF F:\VICON\USERDATA\INSTALL\rory3\rory3.ASF
:FULLY-SPECIFIED
:DEGREES
907
root 0.241345 15.281 -1.83202 8.66532 1.58599 1.11328
lowerback 24.7307 0.899079 0.720339
upperback 8.3583 1.3601 0.475088
thorax -4.52099 0.667818 -0.275207
lowerneck -11.4917 -0.951588 -9.35411
upperneck 10.5997 -1.41642 13.3628
head 5.22659 -0.172908 5.68119
rclavicle -1.94809e-014 0
rhumerus -15.369 5.80167 -70.3571
rradius 113.531
rwrist 24.4386
rhand 14.2624 13.7819
rfingers 7.12502
rthumb 39.1569 -11.6931
lclavicle -1.94809e-014 0
lhumerus -12.5927 -10.5372 77.5938
lradius 113.288
lwrist -6.52477
lhand 7.57836 23.9044
lfingers 7.12502
lthumb 32.826 50.9412
rfemur -35.4366 3.44401 13.4474
rtibia 48.5769
rfoot -16.9748 -8.51991
rtoes -19.4751
lfemur -34.3213 -2.92315 -16.2465
ltibia 43.9087
lfoot -12.8487 -1.59137
ltoes -13.7903
908
root 0.243358 15.2813 -1.83196 8.69073 1.63938 1.12049
lowerback 24.7098 0.884535 0.784706
upperback 8.36588 1.35394 0.436489
thorax -4.49987 0.666197 -0.351633
lowerneck -11.5023 -0.971672 -9.30698
upperneck 10.5942 -1.44542 13.3226
head 5.22974 -0.187422 5.65757
rclavicle -1.98785e-015 -3.57812e-015
rhumerus -15.3408 5.76339 -70.4423
rradius 113.467
rwrist 24.5284
rhand 14.1142 13.7962
rfingers 7.12502
rthumb 39.0172 -11.7189
lclavicle -1.98785e-015 -3.57812e-015
lhumerus -12.5755 -10.4942 77.5348
lradius 113.31
lwrist -6.59822
lhand 7.47916 23.7868
lfingers 7.12502
lthumb 32.7317 50.8432
rfemur -35.4221 3.38929 13.4436
rtibia 48.6298
rfoot -16.8914 -8.40024
rtoes -18.6616
lfemur -34.3367 -2.9773 -16.252
ltibia 43.8757
lfoot -12.8349 -1.56308
ltoes -13.7969
909
root 0.244271 15.282 -1.83261 8.70198 1.64603 1.13009
lowerback 24.716 0.885542 0.796746
upperback 8.37875 1.35648 0.413424
thorax -4.48786 0.667968 -0.38413
lowerneck -11.466 -0.964148 -9.32247
upperneck 10.5291 -1.42858 13.3172
head 5.2016 -0.182169 5.65802
rclavicle 2.38542e-015 6.75868e-015
rhumerus -15.3262 5.76918 -70.5089
rradius 113.461
rwrist 24.5774
rhand 14.137 13.8082
rfingers 7.12502
rthumb 39.0387 -11.7007
lclavicle 2.38542e-015 6.75868e-015
lhumerus -12.5222 -10.4098 77.4838
lradius 113.277
lwrist -6.67965
lhand 7.39776 23.6071
lfingers 7.12502
lthumb 32.6542 50.6796
rfemur -35.4202 3.37805 13.4293
rtibia 48.6736
rfoot -16.8953 -8.30218
rtoes -17.9594
lfemur -34.3404 -2.98982 -16.2591
ltibia 43.8439
lfoot -12.7909 -1.61313
ltoes -13.4691
910
root 0.243747 15.2835 -1.83121 8.73957 1.5834 1.17673
lowerback 24.6593 0.917834 0.705304
upperback 8.39877 1.37393 0.386898
thorax -4.43939 0.676225 -0.364187
lowerneck -11.4075 -0.950378 -9.33696
upperneck 10.4255 -1.39939 13.294
head 5.15629 -0.173205 5.65233
rclavicle 2.38542e-014 -5.56597e-015
rhumerus -15.2802 5.81008 -70.5706
rradius 113.431
rwrist 24.5785
rhand 14.2221 13.8508
rfingers 7.12502
rthumb 39.1189 -11.6351
lclavicle 2.38542e-014 -5.56597e-015
lhumerus -12.5052 -10.2897 77.438
lradius 113.284
lwrist -6.75653
lhand 7.47073 23.519
lfingers 7.12502
lthumb 32.7237 50.5771
rfemur -35.4537 3.40125 13.368
rtibia 48.6709
rfoot -16.9272 -8.23393
rtoes -17.6078
lfemur -34.3419 -2.93137 -16.3242
ltibia 43.8182
lfoot -12.811 -1.59597
ltoes -13.8888
911
root 0.239457 15.2847 -1.83026 8.80082 1.45678 1.15994
lowerback 24.5831 0.988181 0.596459
upperback 8.40882 1.43685 0.379579
thorax -4.39284 0.705858 -0.325737
lowerneck -11.4057 -0.960418 -9.36818
upperneck 10.4222 -1.40904 13.305
head 5.15639 -0.178562 5.66048
rclavicle 1.98785e-015 0
rhumerus -15.2551 5.83985 -70.6034
rradius 113.415
rwrist 24.5331
rhand 14.2919 13.9816
rfingers 7.12502
rthumb 39.1847 -11.4852
lclavicle 1.98785e-015 0
lhumerus -12.5273 -10.1894 77.4139
lradius 113.358
lwrist -6.7378
lhand 7.50914 23.5078
lfingers 7.12502
lthumb 32.7602 50.5583
rfemur -35.5291 3.52451 13.3806
rtibia 48.6357
rfoot -16.8684 -8.26635
rtoes -17.9289
lfemur -34.3701 -2.78628 -16.3109
ltibia 43.7972
lfoot -12.8689 -1.6011
ltoes -13.9972
912
root 0.236951 15.2857 -1.82982 8.8363 1.39687 1.13341
lowerback 24.5629 1.02589 0.546671
upperback 8.39748 1.4733 0.382007
thorax -4.39637 0.72284 -0.304446
lowerneck -11.4274 -0.966501 -9.31869
upperneck 10.492 -1.4179 13.2072
head 5.18144 -0.1857 5.62078
rclavicle 1.98785e-015 3.97569e-015
rhumerus -15.3039 5.87175 -70.6386
rradius 113.41
rwrist 24.435
rhand 14.3266 14.0607
rfingers 7.12502
rthumb 39.2174 -11.3967
lclavicle 1.98785e-015 3.97569e-015
lhumerus -12.5677 -10.0929 77.417
lradius 113.388
lwrist -6.69139
lhand 7.51418 23.3951
lfingers 7.12502
lthumb 32.765 50.4446
rfemur -35.5894 3.63018 13.3985
rtibia 48.5757
rfoot -16.8628 -8.39558
rtoes -18.5351
lfemur -34.3909 -2.71993 -16.273
ltibia 43.7887
lfoot -12.8659 -1.64382
ltoes -13.5919
913
root 0.239677 15.2875 -1.82958 8.89043 1.43289 1.13596
lowerback 24.5264 0.98635 0.55686
upperback 8.38004 1.42496 0.377888
thorax -4.39752 0.699532 -0.301027
lowerneck -11.5142 -0.94548 -9.31864
upperneck 10.6396 -1.38744 13.1403
head 5.23719 -0.170756 5.60504
rclavicle -1.94809e-014 -3.57812e-015
rhumerus -15.3584 6.01187 -70.6788
rradius 113.432
rwrist 24.4109
rhand 14.2911 14.0635
rfingers 7.12502
rthumb 39.1839 -11.4036
lclavicle -1.94809e-014 -3.57812e-015
lhumerus -12.6439 -9.91148 77.4268
lradius 113.407
lwrist -6.65801
lhand 7.58573 23.2371
lfingers 7.12502
lthumb 32.833 50.2724
rfemur -35.6767 3.59138 13.3781
rtibia 48.5158
rfoot -16.9009 -8.54536
rtoes -19.4815
lfemur -34.4597 -2.79254 -16.2684
ltibia 43.7958
lfoot -12.823 -1.6313
ltoes -12.992
914
root 0.240637 15.2872 -1.83036 8.91959 1.48191 1.14728
lowerback 24.5245 0.968112 0.555134
upperback 8.37221 1.40111 0.369941
thorax -4.40519 0.688093 -0.302174
lowerneck -11.552 -0.937892 -9.29033
upperneck 10.7253 -1.37987 13.0877
head 5.26841 -0.167189 5.58562
rclavicle -1.59028e-015 -8.74653e-015
rhumerus -15.385 6.08054 -70.7053
rradius 113.414
rwrist 24.4208
rhand 14.3053 14.0448
rfingers 7.12502
rthumb 39.1973 -11.4184
lclavicle -1.59028e-015 -8.74653e-015
lhumerus -12.7065 -9.85015 77.4363
lradius 113.425
lwrist -6.68765
lhand 7.58335 23.2381
lfingers 7.12502
lthumb 32.8308 50.2739
rfemur -35.7198 3.53496 13.3622
rtibia 48.4761
rfoot -16.8956 -8.58012
rtoes -19.7281
lfemur -34.52 -2.86335 -16.2679
ltibia 43.8192
lfoot -12.7483 -1.65537
ltoes -12.7617
915
root 0.236168 15.2858 -1.83042 8.87615 1.30954 1.13403
lowerback 24.6267 1.08964 0.397004
upperback 8.36197 1.5209 0.390565
thorax -4.47052 0.743726 -0.224469
lowerneck -11.5148 -0.958782 -9.28133
upperneck 10.7339 -1.40759 13.044
head 5.26754 -0.184281 5.56739
rclavicle 1.59028e-014 5.1684e-015
rhumerus -15.3819 6.10829 -70.6752
rradius 113.364
rwrist 24.3663
rhand 14.397 14.0326
rfingers 7.12502
rthumb 39.2838 -11.4055
lclavicle 1.59028e-014 5.1684e-015
lhumerus -12.7825 -9.87837 77.5295
lradius 113.408
lwrist -6.77317
lhand 7.46617 23.3053
lfingers 7.12502
lthumb 32.7193 50.3643
rfemur -35.71 3.70076 13.373
rtibia 48.4686
rfoot -16.8836 -8.58623
rtoes -19.9132
lfemur -34.4536 -2.69116 -16.2671
ltibia 43.8451
lfoot -12.7913 -1.61391
ltoes -13.0813
916
root 0.230849 15.2875 -1.83044 8.84828 1.00491 1.03478
lowerback 24.7241 1.26565 0.222018
upperback 8.33943 1.70669 0.436342
thorax -4.54872 0.830507 -0.128615
lowerneck -11.4373 -0.972635 -9.28634
upperneck 10.6894 -1.4258 13.0326
head 5.24273 -0.197068 5.56144
rclavicle -1.66979e-014 1.78906e-014
rhumerus -15.4109 6.13404 -70.6137
rradius 113.368
rwrist 24.3049
rhand 14.5111 14.0355
rfingers 7.12502
rthumb 39.3912 -11.3714
lclavicle -1.66979e-014 1.78906e-014
lhumerus -12.8433 -9.87737 77.6267
lradius 113.369
lwrist -6.82997
lhand 7.30494 23.3789
lfingers 7.12502
lthumb 32.5659 50.4697
rfemur -35.7097 3.9884 13.4621
rtibia 48.4708
rfoot -16.8256 -8.50441
rtoes -19.6102
lfemur -34.3741 -2.38744 -16.1834
ltibia 43.8773
lfoot -12.9355 -1.57569
ltoes -13.3816
917
root 0.228166 15.2881 -1.83133 8.81961 0.954599 0.975798
lowerback 24.8321 1.3164 0.164336
upperback 8.31312 1.76032 0.470845
thorax -4.63346 0.854974 -0.0759408
lowerneck -11.4309 -0.972252 -9.3407
upperneck 10.7343 -1.42734 13.0871
head 5.25618 -0.196166 5.58953
rclavicle 2.38542e-014 -3.97569e-015
rhumerus -15.4916 6.19919 -70.5504
rradius 113.383
rwrist 24.2934
rhand 14.522 13.9635
rfingers 7.12502
rthumb 39.4015 -11.4403
lclavicle 2.38542e-014 -3.97569e-015
lhumerus -12.9287 -9.85612 77.6502
lradius 113.408
lwrist -6.79139
lhand 7.25439 23.507
lfingers 7.12502
lthumb 32.5178 50.6078
rfemur -35.6386 4.06747 13.5264
rtibia 48.478
rfoot -16.8067 -8.3101
rtoes -18.2197
lfemur -34.3475 -2.30935 -16.1204
ltibia 43.8895
lfoot -12.9707 -1.6646
ltoes -13.4886
